<?xml version="1.0" encoding="UTF-8"?>
<svg width="658px" height="355px" viewBox="0 0 658 355" version="1.1" xmlns="http://www.w3.org/2000/svg" xmlns:xlink="http://www.w3.org/1999/xlink">
    <!-- Generator: Sketch 47.1 (45422) - http://www.bohemiancoding.com/sketch -->
    <title>logo</title>
    <desc>Created with Sketch.</desc>
    <defs></defs>
    <g id="Page-1" stroke="none" stroke-width="1" fill="none" fill-rule="evenodd">
        <g id="logo">
            <g transform="translate(26.000000, 38.000000)">
                <g id="Group" transform="translate(0.000000, 153.000000)" fill-rule="nonzero" fill="#231F20">
                    <path d="M0.451269343,37.9382708 L9.53950173,37.9382708 L9.53950173,6.85 L0.451269343,6.85 L0.451269343,1.47266667 L22.3303628,1.47266667 L38.1189475,29.3680208 L52.7947156,1.47266667 L74.6738091,1.47266667 L74.6738091,6.85 L65.6527204,6.85 L65.6527204,37.9381875 L74.6736004,37.9381875 L74.6736004,43.3156042 L50.268083,43.3156042 L50.268083,37.9381875 L58.0098936,37.9381875 L58.0098936,6.54760417 L39.9364396,40.9294583 L35.861495,40.9294583 L17.1823702,7.62308333 L17.1823702,37.9382708 L24.8568493,37.9382708 L24.8568493,43.3156875 L0.451269343,43.3156875 L0.451269343,37.9382708 Z M2.47088118,9.20270833 L8.12576927,9.20270833 L8.12576927,10.4797917 L2.47088118,10.4797917 L2.47088118,9.20270833 Z M27.2803042,45.6683125 L27.2803042,39.8203958 L28.6267052,39.8203958 L28.6267052,46.9453958 L2.47088118,46.9453958 L2.47088118,45.6683125 L27.2803042,45.6683125 Z M19.5384936,15.353125 L20.8848946,17.7393542 L20.8848946,35.92175 L19.5384936,35.92175 L19.5384936,15.353125 Z M26.1358561,3.18672917 L27.6169827,3.18672917 L39.3623586,23.7553542 L38.5901639,25.1669167 L26.1358561,3.18672917 Z M41.5165083,43.3157083 L56.3942292,14.9498333 L56.3942292,17.7394167 L42.3916929,44.5928958 L38.9266754,44.5928958 L38.217827,43.3158125 L41.5165083,43.3157083 Z M77.0971388,45.6683333 L77.0971388,39.8204167 L78.4435397,39.8204167 L78.4435397,46.9454167 L52.2877157,46.9454167 L52.2877157,45.6683333 L77.0971388,45.6683333 Z M68.0089273,9.20270833 L77.0971388,9.20270833 L77.0971388,3.153125 L78.4435397,3.153125 L78.4435397,10.4798542 L69.3553282,10.4798542 L69.3553282,35.92175 L68.0089273,35.92175 L68.0089273,9.20270833 Z" id="Shape"></path>
                    <path d="M103.332083,37.9382708 L110.602719,37.9382708 L132.750972,1.47266667 L140.021545,1.47266667 L161.765913,37.9382708 L170.51755,37.9382708 L170.51755,43.3156875 L144.599337,43.3156875 L144.599337,37.9382708 L152.745054,37.9382708 L147.862277,29.3680208 L124.268681,29.3680208 L119.52063,37.9382708 L127.298078,37.9382708 L127.298078,43.3156875 L103.332083,43.3156875 L103.332083,37.9382708 Z M129.721533,45.6683125 L129.721533,39.7867708 L131.067997,39.7867708 L131.067997,46.9454583 L104.813189,46.9454583 L104.813189,45.668375 L129.721533,45.6683125 Z M125.579445,31.720625 L147.561424,31.720625 L148.167303,32.9977083 L126.589251,32.9977083 L125.009203,35.9216875 L123.290569,35.9216875 L125.579445,31.720625 Z M145.438801,25.1668958 L135.91499,8.46329167 L126.624825,25.1668958 L145.438801,25.1668958 Z M136.520869,12.2947083 L137.328701,13.7735 L131.90746,23.150375 L130.260102,23.150375 L136.520869,12.2947083 Z M145.37147,3.18670833 L164.862599,35.9217292 L163.314308,35.9217292 L143.823178,3.18670833 L145.37147,3.18670833 Z M172.905368,45.6682917 L172.905368,39.78675 L174.319079,39.78675 L174.319079,46.9454375 L146.044743,46.9454375 L146.044743,45.6683542 L172.905368,45.6682917 Z" id="Shape"></path>
                    <path d="M211.056113,37.9382708 L222.500594,37.9382708 L222.500594,6.85 L206.446752,6.85 L206.446752,15.5882917 L198.871257,15.5882917 L198.871257,1.47266667 L253.705406,1.47266667 L253.705406,15.588375 L246.129911,15.588375 L246.129911,6.85 L230.076006,6.85 L230.076006,37.9381875 L241.520487,37.9381875 L241.520487,43.3156042 L211.056113,43.3156042 L211.056113,37.9382708 Z M200.890785,17.941 L208.870186,17.941 L208.870186,9.20270833 L221.086799,9.20270833 L221.086799,10.4797917 L210.216587,10.4797917 L210.216587,19.2180833 L200.890806,19.2180833 L200.890785,17.941 Z M243.943942,45.6683125 L243.943942,39.8203958 L245.290343,39.8203958 L245.290343,46.9453958 L213.075704,46.9453958 L213.075704,45.6683125 L243.943942,45.6683125 Z M232.499461,9.20270833 L244.716074,9.20270833 L244.716074,10.4797917 L233.845862,10.4797917 L233.845862,35.9216875 L232.499461,35.9216875 L232.499461,9.20270833 Z M248.149398,17.941 L256.128945,17.941 L256.128945,3.15310417 L257.475346,3.15310417 L257.475346,19.2181458 L248.149544,19.2181458 L248.149398,17.941 Z" id="Shape"></path>
                    <path d="M284.078558,22.4109792 C284.078681,20.5500227 284.322304,18.6970571 284.803243,16.899125 C285.285909,15.0802958 286.021721,13.3380631 286.98917,11.7233542 C289.089644,8.2317887 292.126619,5.39667152 295.756665,3.53860417 C297.852421,2.46739381 300.075925,1.66623623 302.373828,1.15435417 C305.030104,0.559823692 307.745986,0.271929682 310.468071,0.296333333 C312.03433,0.295798767 313.598161,0.419416246 315.144826,0.666020833 C316.654722,0.903144309 318.146045,1.24601113 319.607756,1.69208333 C320.994995,2.1144053 322.345791,2.64795377 323.646959,3.28752083 C324.839896,3.86979132 325.972624,4.56772999 327.028808,5.37127083 L327.028808,1.47266667 L334.66765,1.47266667 L334.66765,13.5718542 L327.028808,13.5718542 C326.257412,12.372548 325.303477,11.3006497 324.201364,10.3947708 C322.990483,9.39371072 321.655543,8.55250213 320.229472,7.89189583 C318.678191,7.17392555 317.052861,6.6276585 315.382521,6.26285417 C313.592346,5.86542423 311.763488,5.66783003 309.929606,5.67370833 C307.284893,5.61413473 304.655854,6.09446932 302.203632,7.08527083 C300.146198,7.93677847 298.293057,9.21435224 296.766554,10.8336458 C295.340383,12.3754423 294.247192,14.1937558 293.554985,16.1754792 C292.847407,18.1782414 292.488462,20.2871788 292.493705,22.4108958 C292.467181,24.704203 292.925992,26.9772525 293.840106,29.0812708 C294.706471,31.0695021 295.986093,32.8512129 297.594187,34.3083542 C299.2672,35.8064904 301.21606,36.9654371 303.332223,37.7206458 C305.686097,38.5602265 308.170721,38.9752611 310.670107,38.946375 C312.889263,38.9686806 315.103419,38.7318082 317.267469,38.2405833 C319.116642,37.8179456 320.895606,37.1328698 322.550104,36.20625 C324.06044,35.3534241 325.419761,34.258002 326.57347,32.9639792 C327.718575,31.670219 328.675713,30.2220508 329.416751,28.6620417 L334.600402,32.1573542 C332.590206,36.0687384 329.392448,39.2450309 325.464681,41.23175 C320.749105,43.4458279 315.572919,44.5057888 310.365185,44.3237708 C306.784115,44.3618168 303.222483,43.7936264 299.831568,42.6433333 C296.797622,41.6208338 293.978497,40.0485436 291.515572,38.0053125 C289.228312,36.0909149 287.365794,33.7215148 286.046842,31.0482708 C284.730366,28.3599827 284.056601,25.4033455 284.078558,22.4109792 L284.078558,22.4109792 Z M292.291606,41.7024583 C293.474177,42.4995674 294.73143,43.1802088 296.045688,43.7348125 C297.510568,44.3659278 299.017695,44.894401 300.556128,45.3163958 C302.170676,45.7583144 303.812249,46.0951335 305.470494,46.3247292 C307.114434,46.555313 308.772294,46.6728883 310.43237,46.676625 C313.181966,46.6877272 315.926495,46.4401682 318.629582,45.9372292 C321.082637,45.4868443 323.476572,44.7599286 325.765429,43.7704375 C327.838355,42.8753794 329.770975,41.6861357 331.503465,40.2395208 C333.117723,38.8979472 334.475452,37.2757075 335.510994,35.45125 L336.687116,36.1570417 C335.627631,38.0523857 334.236852,39.7430227 332.580602,41.1489375 C330.792657,42.6693193 328.791438,43.9201777 326.640593,44.8617292 C324.236843,45.9162605 321.718576,46.6885024 319.136394,47.1629375 C316.244276,47.7033131 313.307281,47.9681001 310.364997,47.9537292 C308.596978,47.9542574 306.831322,47.8247403 305.082362,47.5662292 C303.38525,47.3219127 301.712962,46.9289526 300.084849,46.3918958 C298.563961,45.8916021 297.097851,45.2384851 295.709051,44.4425833 C294.431294,43.7163594 293.277667,42.7913753 292.291606,41.7024583 Z M294.917097,22.3774583 C294.894412,20.4066668 295.271593,18.4516917 296.025908,16.6303542 C296.740389,14.9196139 297.801448,13.3748754 299.142437,12.0931667 C300.520513,10.7885336 302.145487,9.77161307 303.922161,9.10197917 C305.884477,8.36447697 307.967571,7.99971997 310.064123,8.0265 C312.713723,7.97520034 315.348168,8.43710521 317.821749,9.38666667 C319.91785,10.1954859 321.768011,11.533315 323.191517,13.2694792 C321.300727,11.9337706 319.203037,10.917245 316.982223,10.2605 C314.688672,9.60907536 312.31394,9.28689352 309.92946,9.30364583 C307.966885,9.2721522 306.017248,9.62615444 304.191425,10.3455208 C302.582086,10.9840502 301.117118,11.9379247 299.882938,13.150875 C298.710335,14.3164385 297.793319,15.7127594 297.190136,17.2511458 C296.570428,18.8189373 296.255928,20.4903708 296.263498,22.1758333 C296.249725,23.7644624 296.482156,25.3456585 296.952545,26.8633333 C297.417019,28.3203847 298.160782,29.6733689 299.142437,30.8469792 C300.248684,32.1491911 301.560954,33.2618178 303.027197,34.1407292 C304.858308,35.2328016 306.813999,36.101632 308.852364,36.7286042 C306.867004,36.4739023 304.932113,35.9185828 303.114329,35.0817708 C301.478086,34.332402 299.989407,33.2966211 298.71873,32.0234375 C297.508989,30.7935281 296.554802,29.3368738 295.911087,27.7373125 C295.231779,26.032795 294.894061,24.211744 294.917076,22.377375 L294.917097,22.3774583 Z M329.048358,15.9245625 L337.091126,15.9245625 L337.091126,3.18670833 L338.437527,3.18670833 L338.437527,17.2016042 L329.048337,17.2016042 L329.048358,15.9245625 Z" id="Shape"></path>
                    <path d="M366.624814,37.9382708 L375.713025,37.9382708 L375.713025,6.85 L366.624814,6.85 L366.624814,1.47266667 L392.376711,1.47266667 L392.376711,6.85 L383.355831,6.85 L383.355831,20.0918958 L413.412251,20.0918958 L413.412251,6.85 L404.391371,6.85 L404.391371,1.47266667 L430.143269,1.47266667 L430.143269,6.85 L421.055057,6.85 L421.055057,37.9381875 L430.143269,37.9381875 L430.143269,43.3156042 L404.391351,43.3156042 L404.391351,37.9381875 L413.412231,37.9381875 L413.412231,24.293 L383.355831,24.293 L383.355831,37.9381875 L392.376711,37.9381875 L392.376711,43.3156042 L366.624814,43.3156042 L366.624814,37.9382708 Z M368.644426,9.20270833 L374.299314,10.4797917 L368.644426,10.4797917 L368.644426,9.20270833 Z M394.800166,45.6683125 L394.800166,39.8203958 L396.146567,39.8203958 L396.146567,46.9453958 L368.644342,46.9453958 L368.644342,45.6683125 L394.800166,45.6683125 Z M385.779349,9.20270833 L394.764696,9.20270833 L394.764696,3.18670833 L396.111096,3.18670833 L396.111096,10.4798333 L387.125854,10.4798333 L387.125854,18.0754375 L385.779453,18.0754375 L385.779349,9.20270833 Z M385.779349,26.6457083 L412.06585,26.6457083 L412.06585,27.9227917 L387.125854,27.9227917 L387.125854,35.9217083 L385.779453,35.9217083 L385.779349,26.6457083 Z M406.410962,9.20270833 L411.998623,9.20270833 L411.998623,10.4797917 L406.410962,10.4797917 L406.410962,9.20270833 Z M432.566786,45.6683125 L432.566786,39.8203958 L433.845814,39.8203958 L433.845814,46.9453958 L406.410962,46.9453958 L406.410962,45.6683125 L432.566786,45.6683125 Z M423.478575,9.20270833 L432.531149,9.20270833 L432.531149,3.18670833 L433.87755,3.18670833 L433.87755,10.4798333 L424.824976,10.4798333 L424.824976,35.9217292 L423.478575,35.9217292 L423.478575,9.20270833 Z" id="Shape"></path>
                    <path d="M463.648849,37.9382708 L472.737061,37.9382708 L472.737061,6.85 L463.648849,6.85 L463.648849,1.47266667 L513.699331,1.47266667 L513.699331,14.580125 L506.127737,14.580125 L506.127737,6.85 L480.645249,6.85 L480.645249,20.0918958 L497.542582,20.0918958 L497.542582,24.293 L480.645249,24.293 L480.645249,37.9381875 L506.127737,37.9381875 L506.127737,30.2083333 L513.699268,30.2083333 L513.699268,43.3157917 L463.648849,43.3157917 L463.648849,37.9382708 Z M465.66844,9.20270833 L471.323328,9.20270833 L471.323328,10.4797917 L465.66844,10.4797917 L465.66844,9.20270833 Z M516.122827,45.6683125 L516.122827,32.0903333 L517.469228,32.0903333 L517.469228,46.9454375 L465.66844,46.9454375 L465.66844,45.6683542 L516.122827,45.6683125 Z M483.068683,9.20270833 L504.714088,9.20270833 L504.714088,10.4797917 L484.415105,10.4797917 L484.415105,18.0753958 L483.068704,18.0753958 L483.068683,9.20270833 Z M483.068683,26.6457083 L499.934343,26.6457083 L499.934343,21.7724167 L501.280744,21.7724167 L501.280744,27.9228333 L484.415084,27.9228333 L484.415084,35.92175 L483.068683,35.92175 L483.068683,26.6457083 Z M508.147474,16.9327292 L516.122911,16.9327292 L516.122911,3.15310417 L517.469312,3.15310417 L517.469312,18.209875 L508.147474,18.209875 L508.147474,16.9327292 Z" id="Shape"></path>
                    <path d="M550.539209,31.2165 L557.437529,31.2165 C560.215766,33.7766781 563.461183,35.779492 566.996977,37.1158333 C570.403976,38.3612099 574.005434,38.9924515 577.633543,38.9801458 C579.12774,38.9936074 580.618544,38.8357334 582.076672,38.509625 C583.29816,38.2425461 584.476383,37.8067036 585.577306,37.2146875 C586.476329,36.7430762 587.263593,36.0844237 587.885982,35.2831667 C588.414863,34.5992913 588.704245,33.7609522 588.709672,32.8969375 C588.708261,31.9099641 588.376531,30.9517728 587.767198,30.174625 C586.950521,29.2015142 585.918988,28.4307323 584.753637,27.9228333 C583.052339,27.1424308 581.268292,26.5561677 579.435344,26.1751667 C576.85329,25.6176719 574.240378,25.2136563 571.610386,24.96525 C568.537268,24.7011117 565.501202,24.109931 562.553869,23.2017708 C560.374374,22.5368111 558.313597,21.5326747 556.447545,20.2263958 C555.000569,19.2169739 553.812141,17.8813485 552.978584,16.3277708 C552.257072,14.9240537 551.882327,13.368369 551.88563,11.7905833 C551.896766,10.2697505 552.340322,8.78336018 553.164658,7.50445833 C554.135937,6.01073888 555.43624,4.75839489 556.966271,3.8430625 C558.919388,2.66606556 561.043397,1.79841422 563.262676,1.271 C566.127253,0.580101485 569.067652,0.252629523 572.014292,0.296333333 C573.792103,0.282523807 575.567311,0.434756098 577.316728,0.751041667 C578.831272,1.02712757 580.318187,1.4373238 581.759857,1.97677083 C583.064519,2.46847739 584.320067,3.0813958 585.509975,3.80745833 C586.631706,4.49859923 587.710779,5.25649608 588.741345,6.07704167 L588.741345,1.47266667 L596.316924,1.47266667 L596.316924,13.5718542 L588.741429,13.5718542 C588.028916,12.4038979 587.143763,11.3501309 586.115937,10.4462292 C584.992801,9.45136894 583.742405,8.60973049 582.397493,7.94335417 C580.93525,7.21452798 579.393925,6.65599874 577.803885,6.27877083 C576.094514,5.86998796 574.342297,5.66689166 572.584597,5.6738125 C570.893517,5.65072465 569.205568,5.82589518 567.555389,6.19572917 C566.287251,6.47401817 565.063856,6.92643952 563.920112,7.54008333 C563.062364,7.98601916 562.310245,8.61025471 561.714384,9.37077083 C561.259333,9.93442383 560.99951,10.6301606 560.973863,11.3536875 C560.974876,12.1885592 561.202013,13.0076153 561.631216,13.7241042 C562.212427,14.6063648 563.011685,15.3240574 563.951786,15.8078542 C565.381582,16.568207 566.902592,17.1435353 568.478062,17.5199375 C570.869857,18.1134414 573.298836,18.5460586 575.748636,18.814875 C579.247699,19.2092318 582.712861,19.8607704 586.115917,20.7641875 C588.480533,21.3669858 590.73974,22.3248885 592.816248,23.605125 C594.343936,24.5440688 595.587976,25.8791408 596.415887,27.4681667 C597.152801,29.0159846 597.521434,30.7129285 597.493003,32.4265 C597.47088,33.8980484 597.084529,35.3412812 596.368377,36.6276042 C595.523426,38.1437069 594.350524,39.4526067 592.935054,40.4590208 C591.161764,41.7149065 589.186226,42.658396 587.094049,43.2486042 C584.38994,44.012683 581.587893,44.375062 578.778053,44.3240833 C576.858635,44.3296204 574.94121,44.2001332 573.040018,43.9365833 C571.252747,43.6895304 569.486808,43.3075328 567.757383,42.793875 C566.069336,42.2933907 564.420214,41.6702907 562.823216,40.9295625 C561.196826,40.1719478 559.622571,39.3074241 558.110823,38.3416875 L558.110823,43.3157917 L550.539209,43.3157917 L550.539209,31.2165 Z M560.534257,45.6683125 L560.534257,42.3410417 C563.212957,43.7474848 566.049789,44.830589 568.984895,45.5675 C572.180609,46.3367539 575.45919,46.7092639 578.746297,46.6765833 C581.396441,46.6838736 584.038846,46.3907185 586.62275,45.80275 C588.999014,45.2817557 591.280456,44.3975032 593.386427,43.18125 C595.281553,42.0901878 596.904786,40.5850039 598.134479,38.7785 C599.344521,36.9335665 599.965855,34.7656452 599.916479,32.5608542 C599.930132,31.2423472 599.778475,29.9273169 599.465043,28.6464167 C599.103543,27.3574991 598.491286,26.152312 597.663241,25.0996875 C598.214859,25.4939659 598.708107,25.9638595 599.128448,26.4955208 C599.572157,27.0551557 599.949541,27.6641617 600.253074,28.3103958 C600.571718,28.9774171 600.819898,29.6757699 600.993596,30.3941458 C601.172122,31.1026296 601.262565,31.8303733 601.26288,32.5609375 C601.307187,34.8683815 600.694739,37.141001 599.496716,39.1146667 C598.272992,41.0666702 596.620995,42.7154786 594.665518,43.9365417 C592.456632,45.3195124 590.035178,46.3307034 587.497913,46.9297083 C584.621745,47.6283183 581.67065,47.9722445 578.710659,47.9537917 C575.562616,47.988953 572.419968,47.6847115 569.337327,47.0463542 C566.781234,46.5073978 564.300012,45.6610002 561.947969,44.5256875 L561.947969,46.9455208 L552.558737,46.9455208 L552.558737,45.6684375 L560.534257,45.6683125 Z M552.859778,19.8567083 C553.633973,20.8530653 554.533736,21.7454734 555.536764,22.5118125 C556.675988,23.36264 557.920481,24.0630149 559.239372,24.5955625 C560.887088,25.2629917 562.587921,25.7913821 564.324018,26.1751875 C566.572584,26.674955 568.848061,27.0452602 571.139191,27.2842708 C573.673599,27.5748819 575.844997,27.8773611 577.653385,28.1917083 C579.170123,28.4395646 580.669912,28.781589 582.144024,29.2157917 C583.120951,29.4856287 584.047693,29.9115743 584.8883,30.4771042 C585.478062,30.8813264 585.92991,31.4559681 586.183227,32.1239375 C585.518221,31.7356305 584.827594,31.3928224 584.116106,31.097875 C583.201345,30.7389629 582.261667,30.4469156 581.304498,30.2240417 C580.160064,29.9452917 578.723902,29.6711458 576.996011,29.4016042 C575.265491,29.1327292 573.088807,28.8414514 570.465959,28.5277708 C567.994952,28.2469274 565.547769,27.7863846 563.143912,27.1498125 C561.286306,26.6650101 559.482077,25.9954165 557.758308,25.1510833 C556.473593,24.5346199 555.310585,23.6921498 554.324985,22.6640208 C553.574875,21.8894818 553.065905,20.9143026 552.859778,19.8567083 L552.859778,19.8567083 Z M563.765628,11.1520208 C563.790236,10.6355352 564.059243,10.161476 564.490313,9.8749375 C565.094392,9.43287059 565.773087,9.10273984 566.494067,8.90027083 C567.478664,8.60259029 568.486809,8.38896798 569.507627,8.26170833 C570.750969,8.09941435 572.003836,8.02081331 573.257745,8.0264375 C575.191037,8.00854465 577.112239,8.33249368 578.932434,8.98329167 C580.514523,9.5329429 581.980769,10.370861 583.256758,11.4545208 C582.627113,11.1856458 581.922229,10.9227083 581.134198,10.6637292 C580.350117,10.4067847 579.526434,10.1721806 578.66315,9.95991667 C577.785681,9.74440882 576.897393,9.57547066 576.002021,9.4538125 C575.114829,9.33267322 574.220482,9.27124989 573.325035,9.26995833 C571.295879,9.22709392 569.268774,9.42418713 567.286021,9.857125 C566.055884,10.1160745 564.870007,10.5522932 563.765628,11.1520833 L563.765628,11.1520208 Z M590.760957,15.9244792 L598.740358,15.9244792 L598.740358,3.18670833 L600.15407,3.18670833 L600.15407,17.2016042 L590.760936,17.2016042 L590.760957,15.9244792 Z" id="Shape"></path>
                </g>
                <g id="Group" transform="translate(50.000000, 0.000000)" fill-rule="nonzero" fill="#231F20">
                    <path d="M11.2957329,75.0646438 L21.8677215,72.557419 L13.0121506,34.9708171 L1.82974557,37.6212933 L0.299652532,31.1215714 L32.2574373,23.5422152 C35.3612475,22.8045657 38.175681,22.194153 40.700738,21.7109771 C42.9964226,21.2560963 45.3210516,20.9631004 47.6575557,20.834141 C49.8516375,20.7062603 52.0527978,20.8842491 54.1981348,21.363021 C55.9246676,21.7531384 57.5573736,22.4815575 59.0024962,23.5064495 C60.3200371,24.4711654 61.4240808,25.6992218 62.2450386,27.1132133 C63.1218696,28.6453596 63.7645869,30.3008099 64.1517285,32.0242838 C64.5082749,33.5493479 64.5981388,35.1249378 64.4173158,36.6808457 C64.2255101,38.3044695 63.7660208,39.88482 63.0576323,41.3572914 C62.2767119,42.9722222 61.2481099,44.4542753 60.0093304,45.7494133 C58.5871238,47.2342449 56.9661879,48.5136737 55.1930013,49.5510133 C52.9838799,50.7949254 50.6440341,51.7891817 48.2163835,52.5155448 C45.5961835,53.3227841 42.7341785,54.0942368 39.6303684,54.8299029 L28.0475772,57.5777238 L31.0641741,70.376339 L45.4812266,66.9564914 L47.015288,73.4582038 L12.8258468,81.5663562 L11.2957329,75.0646438 Z M4.68777532,39.9474895 L11.1292709,38.42048 L11.4939627,39.9653829 L5.05246709,41.4923924 L4.68777532,39.9474895 Z M50.6027848,75.6114381 L48.9339873,68.5410781 L50.555269,68.1573352 L52.5848316,76.7706076 L16.4530272,85.3401314 L16.0923038,83.7952286 L50.6027848,75.6114381 Z M39.8405449,47.9144857 C42.1357019,47.3716794 44.1216614,46.8441194 45.7984234,46.3318057 C47.2994467,45.891798 48.7482366,45.2891043 50.1191677,44.5343848 C51.964475,43.6791886 53.4297931,42.1702533 54.2337247,40.2973524 C54.8118236,38.4793617 54.8503858,36.5319477 54.3447133,34.69236 C54.0494174,33.2489727 53.4086584,31.8992739 52.4776652,30.7595981 C51.5357822,29.7151579 50.3046163,28.9764653 48.9417778,28.6380857 C47.1304918,28.1979272 45.2568425,28.0761643 43.4040854,28.2782076 C40.7501544,28.5325807 38.1187431,28.9845046 35.5316013,29.6302438 L22.2046557,32.7896324 L26.5134532,51.0759276 L39.8405449,47.9144857 Z M25.7089006,34.9627714 L35.9161766,32.5410324 C39.0665735,31.7118607 42.28998,31.1924509 45.5407519,30.9901581 C47.2740398,30.7625385 49.0240683,31.2633097 50.3768184,32.374 C49.6912353,32.2498085 48.9963266,32.1846189 48.2996772,32.1791429 C47.3472965,32.1761003 46.3955783,32.2298823 45.4495633,32.3402038 C44.3396494,32.4614902 43.0407791,32.6623048 41.5529525,32.9426476 C40.0624943,33.2249879 38.3051259,33.6060768 36.2808475,34.0859143 L27.6948323,36.12192 L30.3943158,47.580421 L28.7730342,47.9641638 L25.7089006,34.9627714 Z M31.5518222,59.7487676 L38.0329595,58.2118267 C40.4073861,57.6491435 42.4567696,57.1487587 44.1811101,56.7106724 C45.9014823,56.27524 47.4329051,55.8477556 48.7753785,55.428219 C50.1152063,55.01068 51.3123335,54.583859 52.3667601,54.1477562 C53.4172184,53.7123238 54.4637152,53.2278419 55.5062506,52.6943105 C57.7020868,51.6116663 59.7366876,50.2271097 61.5512658,48.5806457 C63.163517,47.1180296 64.5148577,45.3898715 65.546981,43.4707371 C66.5209496,41.6277726 67.1421223,39.6180735 67.3783557,37.5456343 C67.6173928,35.3471419 67.4698062,33.1236201 66.9423171,30.9763295 C66.4180966,28.4608254 65.283957,26.1136987 63.6402285,24.1425848 C61.904879,22.2451811 59.7521939,20.7800881 57.3533316,19.8637943 C58.8154134,20.1156243 60.2283398,20.5988353 61.5392981,21.2953657 C63.9741917,22.5920672 65.9839096,24.5666937 67.3268297,26.9818419 C67.9541451,28.1024856 68.4237117,29.3048923 68.7221449,30.5547886 C69.2850974,32.864912 69.4301186,35.2576501 69.1503095,37.6191771 C68.8663946,39.9084397 68.1635548,42.1254345 67.0771367,44.1586667 C65.9089947,46.3108711 64.3834427,48.2474073 62.5661203,49.8849524 C60.4908885,51.7482391 58.151827,53.2926853 55.6251759,54.4679505 C54.8085304,54.8636152 53.8730848,55.263261 52.830619,55.6688781 C51.7841291,56.0744883 50.5711494,56.4907003 49.1916797,56.9175143 C47.8082418,57.3469822 46.2305703,57.79236 44.4586652,58.2536476 C42.6867601,58.7169187 40.666443,59.217967 38.3977139,59.7567924 L33.5378582,60.908021 L34.9450785,66.8828229 L33.3237968,67.2665657 L31.5518222,59.7487676 Z" id="Shape"></path>
                    <path d="M140.759746,31.3441905 C140.480549,27.6133463 140.974531,23.8649241 142.210576,20.3350343 C143.450533,16.7945958 145.433595,13.5624046 148.025761,10.8568686 C150.879031,7.92494803 154.278362,5.58352997 158.03088,3.96546286 C162.47606,2.05821786 167.220026,0.947189789 172.047526,0.682790476 C176.928228,0.2364056 181.848761,0.583520895 186.619156,1.71073524 C190.441891,2.62261492 194.032202,4.32661724 197.159419,6.71326286 C199.957762,8.91019983 202.207907,11.730443 203.731724,14.9507333 C205.304229,18.3239824 206.228149,21.9645927 206.454997,25.6815162 C206.744108,29.34722 206.259195,33.0328774 205.031924,36.4978057 C203.811022,39.9120385 201.860005,43.0168301 199.315823,45.59424 C196.500944,48.3980603 193.164983,50.6205329 189.497007,52.135699 C185.137767,53.9354489 180.508175,54.987971 175.801401,55.2493486 C171.518996,55.5789405 167.211811,55.3241049 162.997715,54.4918152 C159.136109,53.7520957 155.438413,52.3223363 152.080876,50.2706857 C148.925565,48.3266235 146.249216,45.6920826 144.251981,42.5640857 C142.157692,39.1819941 140.955893,35.320843 140.759746,31.3441905 L140.759746,31.3441905 Z M151.117652,30.2685162 C151.271449,33.1812316 152.057455,36.0251183 153.420739,38.6014248 C154.681443,40.9361369 156.442818,42.9611591 158.577887,44.5305086 C160.791279,46.1347793 163.297968,47.2860208 165.954849,47.9185086 C168.898994,48.6245927 171.935982,48.8587971 174.953113,48.6124305 C178.280412,48.4386354 181.544197,47.6302196 184.569752,46.230459 C187.135762,45.026469 189.4342,43.3170875 191.328361,41.2039829 C193.083301,39.215222 194.395471,36.8740152 195.177393,34.3364419 C195.971227,31.7789905 196.276521,29.0941614 196.077228,26.4230629 C195.908771,23.4998192 195.173601,20.6375958 193.912887,17.9966857 C192.753218,15.5921914 191.077319,13.4750492 189.005474,11.7972114 C186.846386,10.0887937 184.357372,8.84845835 181.69587,8.15466095 C178.63578,7.3582048 175.4629,7.08993572 172.313092,7.36134095 C169.194049,7.54887499 166.132174,8.28515016 163.267333,9.53653333 C160.675389,10.6651309 158.336424,12.3055765 156.389799,14.3601276 C154.501473,16.3876111 153.065022,18.7951271 152.175949,21.4226095 C151.226987,24.2683185 150.866881,27.2783623 151.117673,30.2685162 L151.117652,30.2685162 Z M151.51407,52.8853333 C153.09923,53.8611269 154.771285,54.6871583 156.508703,55.3527905 C158.438297,56.0979691 160.420482,56.6981022 162.438845,57.148221 C164.612617,57.6354785 166.818181,57.9670342 169.038845,58.140379 C176.201108,58.6844289 183.394437,57.6263868 190.099549,55.0426324 C194.111328,53.479558 197.785475,51.1560098 200.921252,48.1989352 C203.864438,45.3868697 206.162523,41.9661083 207.656072,38.1739752 C209.207968,34.1298724 209.81944,29.7838246 209.44392,25.4668171 C209.277768,23.1516514 208.800411,20.8696412 208.024815,18.6827714 C205.612196,11.8874751 200.827015,6.19921542 194.555176,2.67108762 C196.919055,3.55000794 199.137378,4.78133208 201.135397,6.32356952 C205.016191,9.31844175 207.949983,13.3760851 209.582666,18.0067429 C210.420426,20.3728508 210.932539,22.8425403 211.104843,25.3475143 C211.487108,29.8408266 210.90591,34.3641645 209.40033,38.6133676 C207.953422,42.5999579 205.628246,46.2075358 202.598111,49.1672076 C199.338586,52.2948047 195.500799,54.7527287 191.300833,56.4025886 C186.448838,58.3133806 181.326249,59.4427457 176.122713,59.7488724 C171.40706,60.165483 166.655164,59.7905197 162.062436,58.6394019 C158.122402,57.6353793 154.495884,55.6571366 151.51407,52.8853333 Z M154.114386,30.1790705 C153.921825,27.7174775 154.192102,25.241506 154.911148,22.8800571 C155.599457,20.6086917 156.76608,18.5121425 158.332078,16.7322724 C159.986436,14.8831833 161.995182,13.387395 164.238431,12.334179 C166.843482,11.1272105 169.653777,10.4288166 172.519217,10.276299 C175.676286,9.9864474 178.857982,10.4097112 181.830627,11.5150038 C184.559641,12.5757828 186.997423,14.2736094 188.942022,16.4678324 C186.506349,14.6696114 183.758972,13.3407791 180.839624,12.54892 C178.158284,11.883641 175.388476,11.6507472 172.634153,11.858979 C170.023861,12.0012461 167.464141,12.6388189 165.090666,13.7379048 C163.028011,14.6992988 161.185821,16.078203 159.679815,17.788 C158.256736,19.433075 157.186716,21.3545917 156.536461,23.43276 C155.863459,25.5727704 155.605112,27.8222532 155.775372,30.0597257 C155.898476,31.8601883 156.348513,33.6229288 157.103309,35.2610914 C157.875678,36.9164668 158.914986,38.4326777 160.179368,39.7486514 C161.529712,41.1532543 163.075888,42.3540754 164.769668,43.3136571 C166.640847,44.3730815 168.633501,45.2003184 170.703758,45.7771543 C168.387105,45.608631 166.11416,45.0570686 163.976854,44.1447752 C162.084829,43.3400374 160.355746,42.1944401 158.8752,40.7646952 C157.47864,39.399198 156.350446,37.7824715 155.549406,35.9987619 C154.729877,34.1598994 154.243946,32.1891124 154.114449,30.1790286 L154.114386,30.1790705 Z" id="Shape"></path>
                    <path d="M283.550704,27.0454952 C283.870944,23.318104 284.958883,19.6979612 286.745689,16.4141105 C288.535673,13.1192195 291.009351,10.2478301 293.999799,7.99370476 C297.285891,5.55938113 301.016586,3.79620451 304.980068,2.8042819 C309.671954,1.63786177 314.53122,1.30476467 319.337658,1.82008571 C324.226786,2.16703574 329.028093,3.30302441 333.556502,5.18426286 C337.184462,6.69732315 340.455292,8.95773381 343.157288,11.8191905 C345.568468,14.437361 347.338286,17.5831783 348.326341,21.0070819 C349.338521,24.5901377 349.668014,28.3325501 349.297544,32.0381124 C348.997325,35.7030146 347.93027,39.2632507 346.16599,42.4865619 C344.41339,45.6587114 341.990241,48.4078288 339.066478,50.5411181 C335.83869,52.8566169 332.188705,54.5131071 328.324059,55.4164019 C323.734736,56.4920238 318.997773,56.7857445 314.311341,56.2852762 C310.032349,55.921445 305.822435,54.9763277 301.797009,53.4758343 C298.102666,52.1232031 294.68033,50.1163502 291.692785,47.5507314 C288.888883,45.1236374 286.669066,42.0912703 285.199764,38.680981 C283.674611,35.0057417 283.107108,31.0015334 283.550704,27.0454952 L283.550704,27.0454952 Z M290.717594,50.04 C292.125567,51.2592624 293.643731,52.3442574 295.252399,53.2809143 C297.037669,54.3266126 298.897942,55.2377572 300.817849,56.006819 C302.884931,56.8379469 305.008395,57.5203323 307.172125,58.0487962 C314.154378,59.7375952 321.423035,59.8523536 328.454806,58.3848095 C332.664368,57.4863933 336.662567,55.7847003 340.231838,53.3723295 C343.58683,51.070378 346.402865,48.0642633 348.484866,44.5622305 C350.664096,40.8208935 351.962944,36.6297592 352.282373,32.3083981 C352.491368,29.9962781 352.384678,27.6663574 351.965259,25.3831962 C350.675225,18.2862981 346.862527,11.8998573 341.234725,7.40907048 C343.427501,8.6576335 345.420018,10.2308319 347.145046,12.0755848 C350.499029,15.6540218 352.746245,20.131644 353.614278,24.9656571 C354.064076,27.4362057 354.174776,29.9568789 353.943296,32.4575371 C353.601542,36.9544234 352.302545,41.3255149 350.133906,45.2760362 C348.069779,48.9800014 345.196797,52.1673064 341.730247,54.5991124 C338.013357,57.1595495 333.833676,58.9669507 329.426009,59.919781 C324.330389,61.0244179 319.092679,61.3136416 313.906986,60.7767333 C309.186118,60.429136 304.55609,59.2941584 300.207433,57.4185067 C296.479036,55.7934971 293.216282,53.256652 290.717594,50.04 L290.717594,50.04 Z M293.944284,27.6518781 C293.629511,30.55145 293.950149,33.4850015 294.88376,36.2472571 C295.755951,38.7547983 297.170574,41.0376009 299.026137,42.9318838 C300.953946,44.8711413 303.243842,46.4102407 305.764925,47.4612019 C308.558213,48.6337869 311.518993,49.3551942 314.537244,49.5986171 C317.848348,49.9625213 321.198251,49.6898981 324.407586,48.7953448 C327.133529,48.0208257 329.676092,46.7035803 331.883673,44.9221505 C333.935142,43.2428238 335.605544,41.1434467 336.783171,38.7644133 C337.97352,36.3668035 338.703699,33.7659778 338.935627,31.097581 C339.237604,28.1855363 338.971009,25.2423644 338.150749,22.432619 C337.38929,19.8729791 336.073614,17.5136746 334.297749,15.52332 C332.439863,13.4892741 330.181745,11.8637686 327.665981,10.7494457 C324.772961,9.47177159 321.684763,8.6959234 318.532939,8.45495048 C315.423287,8.13914489 312.282522,8.37265957 309.253255,9.14489143 C306.516335,9.84340933 303.947096,11.0861297 301.697884,12.7993638 C299.508268,14.4960242 297.704226,16.6413177 296.405958,19.0923067 C295.012112,21.7472444 294.174409,24.6601647 293.944367,27.65192 L293.944284,27.6518781 Z M296.91727,28.0455524 C297.12157,25.5855208 297.784469,23.185838 298.871518,20.9712114 C299.915408,18.8406975 301.402245,16.9593014 303.231904,15.4537162 C305.160813,13.8956602 307.382431,12.7427617 309.764567,12.063621 C312.530501,11.292665 315.417253,11.0558395 318.271299,11.365739 C321.432746,11.5900947 324.504312,12.5200604 327.261627,14.0877048 C329.784672,15.5767042 331.919067,17.6456171 333.489061,20.1240857 C331.372116,17.9557179 328.872015,16.2007698 326.116025,14.9485752 C323.576052,13.8610154 320.879966,13.1851882 318.128584,12.9463657 C315.528253,12.6672699 312.898758,12.8845011 310.378973,13.5865867 C308.190364,14.203511 306.152511,15.2676412 304.393337,16.712179 C302.726065,18.1080947 301.362067,19.8323768 300.385737,21.778339 C299.38012,23.7825472 298.765258,25.960958 298.574184,28.1965352 C298.408007,29.9931341 298.57056,31.8050735 299.053832,33.5430381 C299.550783,35.3016598 300.332894,36.9662336 301.368803,38.4700114 C302.47866,40.0732629 303.813808,41.5070741 305.332792,42.7269276 C307.009694,44.0745779 308.843996,45.2122904 310.79517,46.1149276 C308.534927,45.5741017 306.378786,44.6638983 304.413137,43.4207867 C302.676733,42.3193456 301.154832,40.9098408 299.921941,39.2612781 C298.761385,37.6895661 297.907358,35.9119969 297.404814,34.0221352 C296.889949,32.0747805 296.724865,30.0510116 296.917291,28.0455943 L296.91727,28.0455524 Z" id="Shape"></path>
                    <path d="M422.651176,64.3418019 L433.17567,67.0498552 L442.748719,29.6402171 L431.621787,26.7750838 L433.274774,20.3051981 L465.085813,28.49496 C468.173764,29.2902705 470.948556,30.0623867 473.410189,30.8113086 C475.65328,31.4775697 477.846826,32.3014359 479.974557,33.2767962 C481.976727,34.1864317 483.843131,35.3708552 485.520186,36.7960629 C486.869721,37.9452646 487.978592,39.3516204 488.782591,40.9336971 C489.501456,42.4028537 489.910349,44.0050289 489.983687,45.639979 C490.047862,47.4052135 489.850145,49.1702141 489.397018,50.8771314 C489.005365,52.3935791 488.353456,53.8300216 487.470507,55.1220838 C486.549195,56.4712518 485.410517,57.6572262 484.101123,58.631419 C482.662006,59.6970081 481.064835,60.5289952 479.368109,61.0969067 C477.421537,61.750351 475.393512,62.1277961 473.342831,62.218299 C470.810278,62.2897591 468.277641,62.0790363 465.791428,61.59 C463.099909,61.0829524 460.208838,60.431459 457.118214,59.63552 L445.587011,56.6670076 L442.328616,69.4060552 L456.682238,73.1022857 L455.025283,79.5721714 L420.998377,70.8117714 L422.651176,64.3418019 Z M457.201341,83.1510057 L459.004958,76.1144629 L460.614334,76.5300114 L458.422236,85.1035162 L422.460883,75.8440514 L422.853311,74.3071105 L457.201341,83.1510057 Z M433.072513,30.1671067 L439.482283,31.817379 L439.089854,33.35432 L432.680085,31.7040476 L433.072513,30.1671067 Z M447.683785,60.2240724 L454.133197,61.8862876 C456.499701,62.4947029 458.546446,63.0070165 460.273432,63.4232286 C462.001727,63.8387841 463.555609,64.174141 464.935078,64.429299 C466.318516,64.6838006 467.576422,64.8640749 468.708796,64.9701219 C469.842492,65.0754914 470.992061,65.1351429 472.165441,65.1490762 C474.611227,65.2127589 477.053965,64.9350522 479.42352,64.3239295 C481.527735,63.7800777 483.523902,62.8796948 485.325925,61.6616152 C487.0431,60.4837957 488.524825,58.9933234 489.694247,57.2675029 C490.925489,55.4336236 491.824559,53.3962148 492.350121,51.2489524 C493.052154,48.7778358 493.136563,46.1712803 492.595887,43.6596648 C491.938472,41.1696886 490.709989,38.8683338 489.008474,36.9392514 C490.186643,37.8439224 491.214211,38.9304525 492.052828,40.1582914 C493.607458,42.4415707 494.471871,45.1265783 494.542219,47.8907467 C494.57893,49.1757013 494.438872,50.4595983 494.126001,51.7061752 C493.552789,54.0134696 492.571332,56.1987942 491.22833,58.1581676 C489.916083,60.0539239 488.265747,61.6899494 486.360537,62.9837524 C484.33094,64.3456329 482.083945,65.3489608 479.716885,65.9502743 C477.016384,66.633472 474.229769,66.9108787 471.448088,66.7734305 C470.540337,66.7416248 469.529521,66.661433 468.415639,66.5328552 C467.301763,66.403621 466.037237,66.2067733 464.614164,65.9423333 C463.191126,65.6759029 461.588349,65.3345816 459.805834,64.9183695 C458.022038,64.502814 456.000405,64.0044197 453.740935,63.4231867 L448.904869,62.17652 L447.382692,68.1215067 L445.769347,67.7059581 L447.683785,60.2240724 Z M460.507293,53.611019 C462.790559,54.1995575 464.793694,54.6575276 466.516697,54.9849295 C468.048928,55.2980099 469.610892,55.4407052 471.174292,55.4104305 C473.20389,55.5122438 475.199615,54.8595197 476.779384,53.5772229 C478.133859,52.2372451 479.070428,50.5308697 479.474899,48.6661524 C479.883902,47.2508945 479.942412,45.7568834 479.645351,44.3137981 C479.296037,42.9493479 478.547793,41.7209365 477.496863,40.7865695 C476.096598,39.5525935 474.493944,38.5711269 472.759901,37.8856495 C470.292691,36.8738776 467.754052,36.0471321 465.164888,35.412221 L451.897405,31.9963333 L447.243799,50.1971429 L460.507293,53.611019 Z M453.994451,35.5553676 L464.158137,38.1699733 C467.329968,38.9048864 470.423178,39.9470021 473.394232,41.2816533 C475.034402,41.8897578 476.352199,43.1491632 477.037139,44.7631429 C476.487913,44.3334223 475.903061,43.9516058 475.288975,43.6218667 C474.446656,43.1749445 473.578318,42.7792226 472.688658,42.4368419 C471.650091,42.0252673 470.406722,41.5971403 468.958551,41.152461 C467.511689,40.7090667 465.779426,40.2272387 463.761761,39.7069771 L455.215388,37.5059505 L452.297875,48.9106667 L450.68453,48.4971086 L453.994451,35.5553676 Z" id="Shape"></path>
                </g>
                <path d="M155.043796,267 L439.232369,267" id="Line" stroke="#000000" stroke-width="2" stroke-linecap="round"></path>
                <path id="Line-decoration-1" d="M155.043796,264 L155.043796,270" stroke="#000000" stroke-width="2" stroke-linecap="round"></path>
                <path id="Line-decoration-2" d="M439.232369,264 L439.232369,270" stroke="#000000" stroke-width="2" stroke-linecap="round"></path>
            </g>
        </g>
    </g>
</svg>